<?xml version="1.0" encoding="UTF-8"?>
<svg viewBox="0 0 744.09448 1052.3622" xmlns="http://www.w3.org/2000/svg" xmlns:xlink="http://www.w3.org/1999/xlink">
 <defs>
  <filter id="ax">
   <feGaussianBlur stdDeviation="7.98376"/>
  </filter>
  <filter id="aw">
   <feGaussianBlur stdDeviation="4.42897"/>
  </filter>
  <filter id="ai">
   <feGaussianBlur stdDeviation="4.41149"/>
  </filter>
  <filter id="am">
   <feGaussianBlur stdDeviation="1.26419"/>
  </filter>
  <filter id="al">
   <feGaussianBlur stdDeviation="4.91308"/>
  </filter>
  <filter id="be">
   <feGaussianBlur stdDeviation="2.27406"/>
  </filter>
  <filter id="bd">
   <feGaussianBlur stdDeviation="1.54659"/>
  </filter>
  <filter id="bc">
   <feGaussianBlur stdDeviation=".3397"/>
  </filter>
  <filter id="bb" x="-.05958" y="-.17104" width="1.1192" height="1.3421">
   <feGaussianBlur stdDeviation="2.84955"/>
  </filter>
  <filter id="ba" x="-.03372" y="-.106" width="1.0674" height="1.212">
   <feGaussianBlur stdDeviation=".93283"/>
  </filter>
  <filter id="az" x="-.27827" y="-.45561" width="1.5566" height="1.9112">
   <feGaussianBlur stdDeviation="3.06039"/>
  </filter>
  <filter id="ay" x="-.04434" y="-.12255" width="1.0887" height="1.2451">
   <feGaussianBlur stdDeviation="1.81831"/>
  </filter>
  <filter id="av" x="-.12972" y="-.05687" width="1.2594" height="1.1137">
   <feGaussianBlur stdDeviation="3.03718"/>
  </filter>
  <filter id="au" x="-.16263" y="-1.4779" width="1.3253" height="3.9557">
   <feGaussianBlur stdDeviation="9.30111"/>
  </filter>
  <filter id="at" x="-.08443" y="-.12984" width="1.1689" height="1.2597">
   <feGaussianBlur stdDeviation="5.16326"/>
  </filter>
  <filter id="ar" x="-.07598" y="-.18668" width="1.152" height="1.3734">
   <feGaussianBlur stdDeviation="4.4509"/>
  </filter>
  <filter id="aq" x="-.70083" y="-.04452" width="2.4016" height="1.089">
   <feGaussianBlur stdDeviation="3.91955"/>
  </filter>
  <filter id="ap" x="-.12348" y="-.23882" width="1.247" height="1.4776">
   <feGaussianBlur stdDeviation="4.01516"/>
  </filter>
  <filter id="an" x="-.10968" y="-.0677" width="1.2194" height="1.1354">
   <feGaussianBlur stdDeviation="10.98815"/>
  </filter>
  <filter id="d" x="-.02132" y="-.13602" width="1.0426" height="1.272">
   <feGaussianBlur stdDeviation="4.25481"/>
  </filter>
  <filter id="ak" x="-.685" y="-.03418" width="2.37" height="1.0684">
   <feGaussianBlur stdDeviation="5.13224"/>
  </filter>
  <filter id="aj" x="-.08122" y="-.32836" width="1.1624" height="1.6567">
   <feGaussianBlur stdDeviation="4.23696"/>
  </filter>
  <filter id="ah" x="-.09958" y="-.11556" width="1.1992" height="1.2311">
   <feGaussianBlur stdDeviation="1.06054"/>
  </filter>
  <filter id="bf" x="-.06683" y="-.18141" width="1.1336" height="1.3628">
   <feGaussianBlur stdDeviation="1.18491"/>
  </filter>
  <filter id="as" x="-.06953" y="-.36548" width="1.1391" height="1.731">
   <feGaussianBlur stdDeviation="20.15727"/>
  </filter>
  <filter id="ao" x="-.33095" y="-.03048" width="1.6619" height="1.061">
   <feGaussianBlur stdDeviation="4.64917"/>
  </filter>
  <linearGradient id="b">
   <stop stop-color="#322929" stop-opacity=".11224" offset="0"/>
   <stop offset=".5"/>
   <stop stop-color="#fff" stop-opacity="0" offset="1"/>
  </linearGradient>
  <linearGradient id="a">
   <stop stop-color="#373337" stop-opacity="0" offset="0"/>
   <stop stop-color="#7d888e" offset=".5"/>
   <stop stop-color="#747474" stop-opacity="0" offset="1"/>
  </linearGradient>
  <linearGradient id="c">
   <stop stop-color="#d1f3ff" offset="0"/>
   <stop stop-color="#b1b1b1" stop-opacity="0" offset="1"/>
  </linearGradient>
  <linearGradient id="ag" x1="-4190.6" x2="-4125.1" y1="-8396.1" y2="-8571.6" gradientUnits="userSpaceOnUse">
   <stop stop-color="#cfe9ff" stop-opacity=".73725" offset="0"/>
   <stop stop-color="#ccc" stop-opacity="0" offset="1"/>
  </linearGradient>
  <linearGradient id="af" x1="-4311.6" x2="-4105.5" y1="-8389" y2="-8352.9" gradientUnits="userSpaceOnUse" spreadMethod="reflect">
   <stop stop-color="#e0e7f0" offset="0"/>
   <stop stop-color="#c1cfe2" stop-opacity="0" offset="1"/>
  </linearGradient>
  <linearGradient id="ae" x1="-4120.3" x2="-4219" gradientUnits="userSpaceOnUse">
   <stop stop-color="#b6dbe8" offset="0"/>
   <stop stop-color="#b3ae99" stop-opacity="0" offset="1"/>
  </linearGradient>
  <linearGradient id="ad" x1="-4108.8" x2="-4213.4" y1="-8959.2" y2="-8911.5" gradientUnits="userSpaceOnUse">
   <stop stop-color="#1d1d1d" offset="0"/>
   <stop stop-color="#1d1d1d" stop-opacity="0" offset="1"/>
  </linearGradient>
  <linearGradient id="ac" x1="145.63" x2="184.94" y1="302.6" y2="306.98" gradientUnits="userSpaceOnUse">
   <stop stop-color="#6a6a6a" stop-opacity=".83673" offset="0"/>
   <stop stop-color="#fff" stop-opacity="0" offset="1"/>
  </linearGradient>
  <linearGradient id="ab" x1="244.27" x2="184.94" y1="348.35" y2="371.73" gradientUnits="userSpaceOnUse">
   <stop stop-color="#fff" offset="0"/>
   <stop stop-color="#fff" stop-opacity="0" offset="1"/>
  </linearGradient>
  <linearGradient id="aa" x1="122.71" x2="291.4" y1="464.9" y2="493.49" gradientUnits="userSpaceOnUse">
   <stop stop-color="#322929" stop-opacity="0" offset="0"/>
   <stop stop-color="#fff" offset=".5"/>
   <stop stop-color="#fff" stop-opacity="0" offset="1"/>
  </linearGradient>
  <linearGradient id="z" x1="-2006.8" x2="-1846" y1="433.53" y2="424.36" gradientTransform="matrix(.15383 0 0 .071399 505 549.4)" gradientUnits="userSpaceOnUse">
   <stop offset="0"/>
   <stop stop-opacity="0" offset="1"/>
  </linearGradient>
  <linearGradient id="y" x1="3093.2" x2="3093.7" gradientUnits="userSpaceOnUse">
   <stop stop-color="#fff" offset="0"/>
   <stop stop-color="#ffbe1e" stop-opacity="0" offset="1"/>
  </linearGradient>
  <linearGradient id="x" x1="481.91" x2="515.03" y1="224.74" y2="263.6" gradientUnits="userSpaceOnUse">
   <stop stop-color="#07000b" offset="0"/>
   <stop stop-color="#07000b" stop-opacity="0" offset="1"/>
  </linearGradient>
  <linearGradient id="v" x1="167.71" x2="233.21" gradientUnits="userSpaceOnUse">
   <stop stop-color="#fff" stop-opacity="0" offset="0"/>
   <stop stop-color="#fff" offset=".5"/>
   <stop stop-color="#fff" stop-opacity="0" offset="1"/>
  </linearGradient>
  <linearGradient id="s" x1="167.71" x2="196.19" gradientUnits="userSpaceOnUse">
   <stop stop-color="#687071" offset="0"/>
   <stop stop-color="#747474" stop-opacity="0" offset="1"/>
  </linearGradient>
  <linearGradient id="r" x1="141.8" x2="470.09" y1="489.79" y2="493.49" gradientUnits="userSpaceOnUse">
   <stop stop-color="#95a7b4" stop-opacity=".70588" offset="0"/>
   <stop stop-color="#fff" offset=".13455"/>
   <stop stop-color="#ececec" offset=".22425"/>
   <stop stop-color="#b2afb3" stop-opacity=".7098" offset=".40365"/>
   <stop stop-color="#97a7be" stop-opacity=".2551" offset=".51494"/>
   <stop stop-color="#9199a4" stop-opacity=".24706" offset=".62623"/>
   <stop stop-color="#8e9297" stop-opacity=".24314" offset=".68188"/>
   <stop stop-color="#8c8e91" stop-opacity=".24314" offset=".7097"/>
   <stop stop-color="#8b8b8b" stop-opacity=".2449" offset=".73752"/>
   <stop stop-opacity=".60204" offset=".875"/>
   <stop stop-color="#0f0f19" stop-opacity=".27059" offset=".9375"/>
   <stop stop-color="#171726" stop-opacity=".13333" offset=".96875"/>
   <stop stop-color="#1b1b2c" stop-opacity=".06667" offset=".98438"/>
   <stop stop-color="#1f1f33" stop-opacity="0" offset="1"/>
  </linearGradient>
  <linearGradient id="q" x1="96.701" x2="150.68" y1="258.09" y2="309.56" gradientUnits="userSpaceOnUse">
   <stop stop-color="#b2b9ca" offset="0"/>
   <stop stop-color="#999faf" stop-opacity="0" offset="1"/>
  </linearGradient>
  <linearGradient id="p" x1="145.63" x2="184.94" y1="367.37" y2="363.15" gradientUnits="userSpaceOnUse">
   <stop stop-color="#d3e3ef" offset="0"/>
   <stop stop-color="#c1cfe2" stop-opacity="0" offset="1"/>
  </linearGradient>
  <linearGradient id="o" x1="367.53" x2="308.98" y1="340.48" y2="428" gradientUnits="userSpaceOnUse">
   <stop stop-color="#5a6671" stop-opacity=".40784" offset="0"/>
   <stop stop-color="#a3c1c2" stop-opacity="0" offset="1"/>
  </linearGradient>
  <linearGradient id="w" x1="314.27" x2="386.5" gradientUnits="userSpaceOnUse" xlink:href="#b"/>
  <linearGradient id="u" x1="632.22" x2="399.76" gradientUnits="userSpaceOnUse" xlink:href="#a" spreadMethod="reflect"/>
  <linearGradient id="t" x1="167.71" x2="196.19" gradientUnits="userSpaceOnUse" xlink:href="#a"/>
  <linearGradient id="n" x1="221.32" x2="199.8" y1="773.74" y2="627.54" gradientUnits="userSpaceOnUse" xlink:href="#b"/>
  <radialGradient id="m" cx="-4125.9" cy="-7748.4" r="347.9" gradientTransform="matrix(.98632 .05763 .018448 .45934 167.77 -3971.2)" gradientUnits="userSpaceOnUse">
   <stop stop-color="#594c36" offset="0"/>
   <stop stop-color="#070000" stop-opacity="0" offset="1"/>
  </radialGradient>
  <radialGradient id="k" cx="-4524.8" cy="-8363.9" r="111.1" gradientTransform="matrix(.56717 .14162 -1.0994 4.4027 -11000 29356)" gradientUnits="userSpaceOnUse">
   <stop stop-color="#f3ffff" offset="0"/>
   <stop stop-color="#b1b1b1" stop-opacity="0" offset="1"/>
  </radialGradient>
  <radialGradient id="j" cx="-4260.6" cy="-8896.4" r="105.49" gradientTransform="matrix(.37103 1.1016 -1.3643 .4595 -14829 -125.78)" gradientUnits="userSpaceOnUse">
   <stop stop-color="#edf7ff" offset="0"/>
   <stop stop-color="#b1b1b1" stop-opacity="0" offset="1"/>
  </radialGradient>
  <radialGradient id="i" cx="-4156.3" cy="-7989.6" r="120.22" gradientTransform="matrix(2.5675 -1.9871 1.5365 1.9853 18761 -269.03)" gradientUnits="userSpaceOnUse">
   <stop stop-color="#4c1f1f" offset="0"/>
   <stop stop-color="#1d1d1d" stop-opacity="0" offset="1"/>
  </radialGradient>
  <radialGradient id="h" cx="-4004.8" cy="-8694.5" r="109.55" gradientTransform="matrix(1.1804 7.916e-7 -2.2808e-6 3.4065 5098.9 29963)" gradientUnits="userSpaceOnUse">
   <stop stop-color="#b3ac8a" stop-opacity=".62245" offset="0"/>
   <stop stop-color="#8e8e8e" stop-opacity="0" offset="1"/>
  </radialGradient>
  <radialGradient id="g" cx="-4044.5" cy="-8660.6" r="248.75" gradientTransform="matrix(.60276 -.018326 .0076203 .25064 2851.3 2543)" gradientUnits="userSpaceOnUse">
   <stop stop-color="#1f1f1f" offset="0"/>
   <stop stop-color="#443232" stop-opacity="0" offset="1"/>
  </radialGradient>
  <radialGradient id="f" cx="-4389.8" cy="-8235.5" r="40.673" gradientTransform="matrix(-1.1515 1.1178 -1.9221 -1.9801 -20742 -10858)" gradientUnits="userSpaceOnUse">
   <stop stop-color="#b8cbdb" stop-opacity=".80612" offset="0"/>
   <stop stop-color="#8f6e70" stop-opacity="0" offset="1"/>
  </radialGradient>
  <radialGradient id="l" cx="-4357.3" cy="-8243.2" r="111.1" gradientTransform="matrix(1.2381 3.1549 -1.6534 .64885 -12592 10768)" gradientUnits="userSpaceOnUse" xlink:href="#c"/>
  <radialGradient id="e" cx="-4255.2" cy="-8316.9" r="111.1" gradientTransform="matrix(.19144 -.55724 1.5312 .52603 13804 2570.4)" gradientUnits="userSpaceOnUse" xlink:href="#c"/>
 </defs>
 <path d="m73.607 210.66 64.112-16.19 10.362-13.6 144.41-22.018-17.485-71.884 40.799-11.009 41.446 9.7139-14.247 78.36 56.989 3.238 51.808 15.542 12.952-8.4188 94.549-3.238v46.627l-8.4188 27.199-55.694 18.78-31.64 182.53-11.288 26.741-20.246 18.09-1.4367 25.627-119.96 21.593-137.29-29.79-3.8856-9.714-2.4982-51.437-6.3695-18.544-13.151-40.111-25.256-31.732-48.57-90.664-33.028-15.542-3.238-11.657 18.133-18.133 14.895-5.8284 3.238-4.5332z" fill="#837f7f" fill-rule="evenodd"/>
 <path d="m364.49 468.86s28.424-1.0343 55.677-5.7934c27.63-4.8247 40.972-14.646 40.972-14.646l32.447-218.77-121.19 25.912-7.9032 213.3z" fill="#a1a1a1" fill-rule="evenodd"/>
 <path d="m364.49 468.86s28.424-1.0343 55.677-5.7934c27.63-4.8247 40.972-14.646 40.972-14.646l32.447-218.77-121.19 25.912-7.9032 213.3z" fill="url(#h)" fill-rule="evenodd"/>
 <path d="m225.08 463.31s38.663 13.133 64.361 14.237c25.721 1.1045 74.051-9.1488 74.051-9.1488l4.0381-210.49s-151.68-12.683-155.58-7.1881c-3.4908 4.9262 13.127 212.59 13.127 212.59z" fill="url(#o)" fill-rule="evenodd"/>
 <path transform="matrix(.86245 -.087169 0 .95395 3929.3 7774.3)" d="m-3696.8-7734.1c0 42.379-155.76 76.734-347.9 76.734s-347.9-34.355-347.9-76.734 155.76-76.734 347.9-76.734 347.9 34.355 347.9 76.734z" fill="url(#m)" fill-rule="evenodd" filter="url(#as)" opacity=".75969"/>
 <path transform="matrix(.53412 0 0 .95395 2476.9 8100.6)" d="m-3698.4-7725.6c-11.912 31.717-89.054 59.39-202.32 72.577s-245.4 9.8803-346.55-8.6726-155.92-49.527-143.63-81.234" fill="#1d0f0f" fill-rule="evenodd" filter="url(#ai)"/>
 <path d="m314.86 600.58c-88.772 0-155.82-45.932-155.82-81.349 0-13.715 14.238-5.5388 14.302-25.97 0 0 264.65-7.4779 280.59 9.5467 12.123 12.945 17.534 21.483 18.904 37.035 1.995 22.637-82.355 55.867-157.98 60.737z" fill="#625d5d" fill-rule="evenodd"/>
 <path d="m158.73 517.86-27.545 194.14c0 6e-5 0.3131 0.63669 6.0577 17.934s17.308 27.674 17.308 27.674l19.149-158.92-19.331 159.34s17.643 13.423 45.238 22.931c27.781 9.5718 78.735 13.338 79.985 13.754l7.7932-218.37s-37.313-19.285-54.962-22.003c-27.807-4.2819-51.666-0.88051-53.309-0.62603v-0.03683s-3.8048-17.18-8.3777-23.421-12.005-12.392-12.005-12.392zm313.44 21.009s-12.216 0.38387-26.882 6.4261c-25.576 10.537-36.752 27.361-36.752 27.361l13.938 213.57s26.924-11.647 47.136-26.367c23.651-17.224 31.394-26.146 31.394-26.146l-28.834-194.84zm-125.46 27.361c-25.721 0-59.086 9.6482-59.086 9.6482l-8.1363 218.97s51.02 3.004 82.523-0.74122c39.387-4.6824 60.394-8.2489 60.394-8.2489l-13.738-213.5c0 5e-5 -36.235-6.1293-61.956-6.1292z" fill="#b5b5b5" fill-rule="evenodd"/>
 <path d="m179.04 554.11s23.929-3.873 52.778 0.56947c17.648 2.7176 54.961 22.01 54.961 22.01l-6.9601 218.36s-52.203-4.1852-79.984-13.757c-27.595-9.5075-43.979-23.335-43.979-23.335l23.183-203.85z" fill="#cdcfd1" fill-rule="evenodd"/>
 <path transform="matrix(.58921 0 0 .58921 2731.3 5468.4)" d="m-4331.8-8340.5s40.612-6.5732 89.576 0.9665c29.953 4.6123 93.28 37.355 93.28 37.355l-11.813 370.61s-88.598-7.1032-135.75-23.348c-46.834-16.136-74.641-39.604-74.641-39.604l39.347-345.98z" fill="url(#l)" fill-rule="evenodd" filter="url(#al)"/>
 <path d="m179.04 554.11s23.929-3.873 52.778 0.56947c17.648 2.7176 54.961 22.01 54.961 22.01l-6.9601 218.36s-52.203-4.1852-79.984-13.757c-27.595-9.5075-43.979-23.335-43.979-23.335l23.183-203.85z" fill="url(#e)" fill-rule="evenodd"/>
 <path transform="matrix(.58921 0 0 .58921 2731.3 5468.4)" d="m-4331.8-8340.5s40.612-6.5732 89.576 0.9665c29.953 4.6123 93.28 37.355 93.28 37.355l-11.813 370.61s-88.598-7.1032-135.75-23.348c-46.834-16.136-74.641-39.604-74.641-39.604l39.347-345.98z" fill="url(#k)" fill-rule="evenodd" filter="url(#ax)"/>
 <path d="m179.04 554.11s23.929-3.873 52.778 0.56947c17.648 2.7176 54.961 22.01 54.961 22.01l-6.9601 218.36s-52.203-4.1852-79.984-13.757c-27.595-9.5075-43.979-23.335-43.979-23.335l23.183-203.85z" fill="#fff" fill-rule="evenodd" opacity=".30233"/>
 <path d="m179.04 554.11s23.929-3.873 52.778 0.56947c17.648 2.7176 54.961 22.01 54.961 22.01l-6.9601 218.36s-52.203-4.1852-79.984-13.757c-27.595-9.5075-43.979-23.335-43.979-23.335l23.183-203.85z" fill="url(#n)" fill-rule="evenodd" opacity=".2393"/>
 <path d="m225.08 463.31s38.663 13.133 64.361 14.237c25.721 1.1045 74.051-9.1488 74.051-9.1488l4.0381-210.49s-151.68-12.683-155.58-7.1881c-3.4908 4.9262 13.127 212.59 13.127 212.59z" fill="#707070" fill-rule="evenodd"/>
 <path transform="matrix(.58921 0 0 .58921 2731.3 5468.4)" d="m-4253.6-8494.6s65.619 22.29 109.23 24.162c43.654 1.8746 125.68-15.527 125.68-15.527l6.8535-357.25s-257.44-21.526-264.05-12.2c-5.9246 8.3608 22.28 360.81 22.28 360.81z" fill="url(#ag)" fill-rule="evenodd" filter="url(#am)"/>
 <path d="m145.63 385.73s6.9639 30.638 13.703 46.936c5.3178 12.862 10.901 15.344 10.901 15.344l54.03 15.665-14.403-214.85-58.546-15.813-5.6845 152.71z" fill="#d7dee7" fill-opacity=".73856" fill-rule="evenodd"/>
 <path d="m145.63 385.73s6.9639 30.638 13.703 46.936c5.3178 12.862 10.901 15.344 10.901 15.344l54.03 15.665-14.403-214.85-58.546-15.813-5.6845 152.71z" fill="url(#p)" fill-rule="evenodd"/>
 <path d="m158.95 518.21s7.4355 6.1547 12.009 12.396 8.3798 23.408 8.3798 23.408l-24.553 203.95s-11.571-10.367-17.316-27.664-6.0596-17.942-6.0596-17.942l27.541-194.14z" fill="#b1b1b1" fill-rule="evenodd"/>
 <path d="m158.95 518.21s7.4355 6.1547 12.009 12.396 8.3798 23.408 8.3798 23.408l-24.553 203.95s-11.571-10.367-17.316-27.664-6.0596-17.942-6.0596-17.942l27.541-194.14z" fill="url(#f)" fill-rule="evenodd"/>
 <path d="m150.68 233.88-6.5822 151.34-11.779-8.2607-58.49-107.21c22.675-19.313 47.232-33.919 76.852-35.871z" fill="url(#q)" fill-rule="evenodd"/>
 <path d="m167.71 446.42c54.081 31.04 96.619 32.887 143.37 32.963 49.332 0.07983 99.972-3.2623 149.76-26.297l-2.4998 49.681c-35.274 27.465-100.08 37.429-149.63 37.784-48.212 0.34527-121.66-11.132-141-44.45v-49.681z" fill="#757584" fill-rule="evenodd"/>
 <path d="m167.71 446.42c54.081 31.04 96.619 32.887 143.37 32.963 49.332 0.07983 99.972-3.2623 149.76-26.297l-2.4998 49.681c-35.274 27.465-100.08 37.429-149.63 37.784-48.212 0.34527-121.66-11.132-141-44.45v-49.681z" fill="url(#r)" fill-rule="evenodd"/>
 <path d="m167.71 446.42c54.081 31.04 96.619 32.887 143.37 32.963 49.332 0.07983 99.972-3.2623 149.76-26.297l-2.4998 49.681c-35.274 27.465-100.08 37.429-149.63 37.784-48.212 0.34527-121.66-11.132-141-44.45v-49.681z" fill="url(#g)" fill-rule="evenodd"/>
 <path d="m167.71 446.42c54.081 31.04 96.619 32.887 143.37 32.963 49.332 0.07983 99.972-3.2623 149.76-26.297l-2.4998 49.681c-35.274 27.465-100.08 37.429-149.63 37.784-48.212 0.34527-121.66-11.132-141-44.45v-49.681z" fill="url(#s)" fill-rule="evenodd"/>
 <path d="m167.71 446.42c54.081 31.04 96.619 32.887 143.37 32.963 49.332 0.07983 99.972-3.2623 149.76-26.297l-2.4998 49.681c-35.274 27.465-100.08 37.429-149.63 37.784-48.212 0.34527-121.66-11.132-141-44.45v-49.681z" fill="url(#t)" fill-rule="evenodd"/>
 <path d="m167.71 446.42c54.081 31.04 96.619 32.887 143.37 32.963 49.332 0.07983 99.972-3.2623 149.76-26.297l-2.4998 49.681c-35.274 27.465-100.08 37.429-149.63 37.784-48.212 0.34527-121.66-11.132-141-44.45v-49.681z" fill="url(#u)" fill-rule="evenodd"/>
 <path d="m167.71 446.42c54.081 31.04 96.619 32.887 143.37 32.963 49.332 0.07983 99.972-3.2623 149.76-26.297l-2.4998 49.681c-35.274 27.465-100.08 37.429-149.63 37.784-48.212 0.34527-121.66-11.132-141-44.45v-49.681z" fill="url(#v)" fill-rule="evenodd"/>
 <path d="m167.71 446.42c54.081 31.04 96.619 32.887 143.37 32.963 49.332 0.07983 99.972-3.2623 149.76-26.297l-2.4998 49.681c-35.274 27.465-100.08 37.429-149.63 37.784-48.212 0.34527-121.66-11.132-141-44.45v-49.681z" fill="url(#w)" fill-rule="evenodd" opacity=".31008"/>
 <path transform="matrix(.57438 0 0 .58921 2690.9 5476.4)" d="m-4377.8-8424.4c45.355 30.196 172.37 115.23 469.44 14.348 14.337-4.8687-20.309 12.52-8.5937 9.1277-258.21 96.73-405.57 40.231-457.63-3.3998l-3.2192-20.076z" fill="url(#af)" fill-rule="evenodd" filter="url(#d)"/>
 <path d="m408.76 571.16s11.172-16.833 36.748-27.369c14.667-6.0423 26.894-6.4297 26.894-6.4297l28.819 194.84s-7.7316 8.9302-31.382 26.155c-20.212 14.72-47.141 26.369-47.141 26.369l-13.939-213.57z" fill="#918c89" fill-rule="evenodd"/>
 <path d="m287.84 576.23s33.381-9.6561 59.102-9.6561 60.693 4.8949 60.693 4.8949l14.998 214.74s-21.02 3.5648-60.407 8.2472c-31.503 3.7452-81.259-0.09805-81.259-0.09805l6.874-218.13z" fill="#868686" fill-rule="evenodd"/>
 <path d="m493.84 216.58 27.134-1.7676 39.143 1.1789-6.7369 26.17-64.843 23.568 5.3028-49.15z" fill="#8e8e8e" fill-rule="evenodd"/>
 <path d="m513.16 177.88 4.2312 6.1319-15.78-5.2088 11.549-0.9231z" fill="#544040" fill-opacity=".73856" fill-rule="evenodd"/>
 <path d="m69.861 231.18c-24.801 9.9201-24.748 16.29-29.019 17.092l-1.8141-6.2753s6.2839-8.4212 14.256-15.22 17.634-11.976 17.634-11.976l2.8544 4.8125 27.702-0.72826-6.8278 3.9509-10.193 2.0046 2.0144 4.6176" fill="#241c1c" fill-opacity=".38824" fill-rule="evenodd"/>
 <path d="m109.96 210.7 70.705-17.676-24.747 26.514-56.076 10.221-2.8444-6.686 12.963-12.373z" fill="#a5a4a1" fill-rule="evenodd"/>
 <path d="m148.84 180.06 130.8-19.444-97.808 32.406-70.441 17.319-7.4354-5.3302 33.097-11.4 11.784-13.552z" fill="#88877f" fill-rule="evenodd"/>
 <path transform="matrix(.58921 0 0 .58921 2731.3 5468.4)" d="m-4511-8923.4s25.5-9.5 56-4c20.228 3.6478-11 19-11 19s-31.75 1.75-43-2-2-13-2-13z" fill="#fff" fill-rule="evenodd" filter="url(#ba)"/>
 <path transform="matrix(.58921 0 0 .58921 2731.3 5468.4)" d="m-4370.3-8900.2c18.118 2.2076 24.398 9.2054 68.096 20.733 34.062 8.9855 35.88 18.626 24.118 18.84-13.46 0.2442-37.828-8.0942-37.828-8.0942-4.3995 8.799-31.008-9.0181-58.76-19.576-18.229-6.9349-13.744-14.11 4.3739-11.902z" fill="#fff" fill-opacity=".38824" fill-rule="evenodd" filter="url(#bb)"/>
 <path d="m472.8 189.99 20.408 10.609 6.7596 24.003 10.406 1.1657c1.0543 13.731 13.17 14.12 24.191 14.12 11.728 0 25.333-16.169 25.333-31.157 0-13.259-10.144-14.723-16.448-17.095 0 0-57.224-2.5128-70.651-1.6461z" fill="#7e7b7b" fill-rule="evenodd"/>
 <path d="m451.42 181.82 15.332-5.4949 86.887-5.1102 4.3028 27.344s-0.6124-8.6871-19.878-10.012-57.183 4.7136-57.183 4.7136l-29.46-11.44z" fill="#a5a5a5" fill-rule="evenodd"/>
 <path transform="matrix(.58921 0 0 .58921 2731.3 5468.4)" d="m-3798.4-8895.5-211.39 46.631-273.57-9.3262-99.48-31.087-115.02-3.1087 21.761-18.652-34.196 6.2175v3.1088" fill="none" filter="url(#be)" stroke="#000" stroke-width="6.9857"/>
 <path transform="matrix(.44199 0 0 .42852 2090.5 4040.7)" d="m-4534.2-8904s10.137-7.2511 22.262-3.0531c8.0417 2.7842-4.3729 14.502-4.3729 14.502s-12.622 1.3358-17.094-1.5265-0.7951-9.9225-0.7951-9.9225z" fill="#fffaea" fill-rule="evenodd" filter="url(#az)"/>
 <path d="m460.6 227.57-89.445 19.012-159.37-8.6372-55.593-15.749 16.851-26.561 103.18-35.044-123.61 18.813 133.37-19.792 108.37 9.438 54.209 13.731 53.519 19.795-9.8743 16.88-31.614 8.1148z" fill="#aeaca2" fill-rule="evenodd"/>
 <path d="m317.05 67.014-27.685 10.367-15.949 6.0648 0.53011 6.827-0.13581-0.0436 0.16038 0.43565 0.01231 0.08703 0.02463 0.0109 18.115 73.204s21.2 5.2333 27.677 5.0788 21.613-3.2124 21.613-3.2124l18.047-75.604-1.0848 0.26137 1.5161-0.57713-0.56705-7.306-16.861-5.7489-25.412-9.844z" fill="#1d1d1d" fill-rule="evenodd"/>
 <path transform="matrix(.58921 -.0094011 0 .58921 2759.1 5430.5)" d="m-4417.7-8903.6 89.032 24.86 0.5529 5.8947" fill="none" filter="url(#ay)" stroke="#fff" stroke-linecap="round" stroke-width="9"/>
 <path transform="matrix(.58921 0 0 .58921 2731.3 5468.4)" d="m-4271.3-8877.8 98.326-80.939-182.72 54.288 84.396 26.651z" fill="url(#j)" fill-rule="evenodd" filter="url(#aw)" opacity=".74419"/>
 <path transform="matrix(.58921 0 0 .58921 2731.3 5468.4)" d="m-4120.3-9002.2-15.546-117.17-40.646-11.011 38.425 128.18h17.768z" fill="url(#ae)" fill-rule="evenodd" filter="url(#av)" opacity=".74419"/>
 <path transform="matrix(.59074 0 0 .48983 2762.3 4561.6)" d="m-4206.5-9146.2 37.756 6.6628 51.082 2.2209 44.419-8.8837-2.221-2.2209" fill="none" filter="url(#au)" stroke="#fff" stroke-width="4"/>
 <path transform="matrix(.58921 0 0 .58921 2731.3 5468.4)" d="m-4096.7-8905.2 46.987-9.6966 27.068-5.6728-0.8997-6.3857 0.2305 0.0408-0.2722-0.4075-0.0209-0.0814-0.0418-0.0102c-18.27-12.128-30.208-32.7-30.744-68.472 0 0-35.98-24.884-46.974-24.739s-36.681 9.6677-36.681 9.6677l-30.63 84.043 1.8411-0.2445-2.5732 0.5398 0.9624 6.8339 28.616 5.3773 43.13 9.2078z" fill="url(#ad)" fill-rule="evenodd" filter="url(#at)" opacity=".67829"/>
 <path transform="matrix(.58921 0 0 .58921 2731.3 5468.4)" d="m-3820.3-8954.7 41.771-4.0609h55.254s26.08 2.0304 33.853 14.246 6.6628 37.756 6.6628 37.756l-2.2209 2.221" fill="none" filter="url(#ar)" stroke="#fff" stroke-width="3"/>
 <path d="m607.22 165.53c11.415 3.2654 63.74 69.968 64.42 82.647 0.6083 11.345-68.271 196.25-68.271 196.25s-65.45 22.232-71.123 21.11c-8.0698 0-17.94-41.268-13.117-51.155 2.2287-4.5684 26.745 9.3133 26.745 9.3133s19.662-0.65478 29.162-17.163c11.394-19.801 3.4497-38.316 10.99-77.949 10.889-57.239 29.27-63.794 26.872-78.908-1.5726-9.9147-10.838-15.77-23.273-16.312-10.289-0.44821-37.932 10.67-37.932 10.67s5.233-15.502 6.9697-26.439-0.0229-17.31-0.0229-17.31l-3.7808-29.974" fill="#1d1d1d" fill-rule="evenodd"/>
 <path d="m495.79 216.41 13.895 0.53441c0.78953 12.396 11.573 18.795 24.581 23.86l-0.5378 9.8426-36.087 12.954-1.8506-47.191z" fill="url(#x)" fill-rule="evenodd" opacity=".67829"/>
 <path transform="matrix(.58921 0 0 .58921 2731.3 5468.4)" d="m-4387.8-8662.4 9.4226-207.3" fill="none" filter="url(#aq)" stroke="#dbe0e5" stroke-width="4"/>
 <path transform="matrix(.58921 0 0 .58921 2731.3 5468.4)" d="m-3863.3-8970.2 41.617 19.63 35.335 14.134" fill="none" filter="url(#ap)" stroke="#000" stroke-width="5.8"/>
 <path transform="matrix(.58921 0 0 .58921 2731.3 5468.4)" d="m-4147.1-8303s56.654-16.388 100.31-16.388 103.01 8.3077 103.01 8.3077l25.455 364.46s-35.676 6.0501-102.52 13.997c-53.467 6.3563-137.91-0.1664-137.91-0.1664l11.667-370.21z" fill="url(#i)" fill-rule="evenodd" filter="url(#an)"/>
 <path transform="matrix(.58921 0 0 .58921 2731.3 5468.4)" d="m-4007.8-8841.4-6.2817 348.64" fill="none" filter="url(#ak)" stroke="#797979" stroke-width="11.7"/>
 <path transform="matrix(.58921 0 0 .58921 2731.3 5468.4)" d="m-4472.6-8898 91.086-6.2818 31.409-21.986" fill="none" filter="url(#aj)" stroke="#000" stroke-linecap="round" stroke-linejoin="round" stroke-width="2.7"/>
 <path transform="matrix(.58921 0 0 .58921 2731.3 5468.4)" d="m-3792.7-8976.3-34.175-0.1832 46.974 15.859-12.799-15.676z" fill-opacity=".45914" fill-rule="evenodd" filter="url(#bf)"/>
 <path transform="matrix(.58921 0 0 .58921 2731.3 5468.4)" d="m-3710-8910.3-33.152-2.9724c0.3199 11.597 7.1488 15.568 14.365 16.42 13.496 1.593 18.787-13.448 18.787-13.448z" fill-opacity=".41245" fill-rule="evenodd" filter="url(#ah)"/>
 <path d="m244.54 572.54-1.6039 24.365-17.782 11.054-21.692-3.3705-8.1767-14.152 1.4906-22.202 13.323-12.84 21.537 1.3254 12.903 15.821z" fill="#b78e2a" fill-rule="evenodd"/>
 <path d="m224.35 555.91c3.4804 5.9287 7.1603 11.873 13.06 17.992l8.4284 0.66857-12.517-16.808-8.9705-1.8524z" fill="#c8b79b" fill-opacity=".54118" fill-rule="evenodd"/>
 <path d="m218.9 567.27c7.2146 0.56805 12.545 7.7013 11.897 15.922s-7.0279 14.432-14.243 13.864c-0.49806-0.03924-0.98445-0.11201-1.4628-0.21288 1.3377-0.19043 2.6223-0.61065 3.8195-1.2277l0.03547-0.02021c4.4177-2.1359 7.705-6.9166 8.1599-12.694 0.59103-7.5071-3.803-14.106-10.064-15.628 0.61089-0.04979 1.2303-0.0525 1.857-0.00318zm-1.857 0.00318c-0.22885 0.01874-0.45681 0.04631-0.68295 0.07842-0.48138-0.10093-0.97165-0.17422-1.4723-0.21364-2.083-0.16398-4.0954 0.23656-5.9215 1.088 1.9103-0.95788 4.0371-1.4202 6.2435-1.2465 0.62656 0.04932 1.2379 0.14895 1.8333 0.29372z" fill="#656528" fill-rule="evenodd"/>
 <path d="m223 582.4c-0.43331 5.5035-4.6982 9.6568-9.526 9.2767s-8.3902-5.1497-7.9568-10.653 4.6982-9.6568 9.526-9.2767 8.3902 5.1497 7.9568 10.653z" fill="#b78e2a" fill-rule="evenodd"/>
 <path d="m213.48394,570.96836c-4.8253-.37992-9.09291,3.7761-9.52598,9.27674s3.13151,10.27327 7.95687,10.65319c.33302.02622.66191.02911.98851.01243-.86384-.2659-1.66834-.67805-2.39459-1.21111l-.02127-.01708c-2.69467-1.87409-4.36572-5.37756-4.06139-9.24311 .39547-5.02291 3.98898-8.92393 8.28411-9.2745-.39831-.09693-.80727-.16357-1.22626-.19656zm1.22626.19656 .44302.12332c.32836-.01632.65997-.01344.99487.01296 1.39318.10965 2.68059.58514 3.79773,1.33897-1.16162-.83308-2.51809-1.3613-3.99381-1.47749-.41899-.033-.83332-.03117-1.24181.00224z" fill="#cd9c47" fill-rule="evenodd"/>
 <path d="m237.08 573.94s-1.0279 4.8918-1.8574 10.443-0.3676 11.502-0.3676 11.502l8.3902 0.71229 2.3419-22.347-8.5071-0.30975z" fill="#875323" fill-opacity=".80934" fill-rule="evenodd"/>
 <path d="m249.94 574.95s0.8269 5.0635-0.19502 10.573c-1.1245 6.063-4.0075 12.359-4.0075 12.359l-2.3972-1.2809 1.4066-22.421 5.1931 0.76897z" fill="#875323" fill-opacity=".42412" fill-rule="evenodd"/>
 <path d="m249.99 574.89c-2.9254-5.885-7.9031-11.467-12.905-17.516l-5.3545-0.89064 10.571 16.655 7.6885 1.7514z" fill="#c8b79b" fill-opacity=".54118" fill-rule="evenodd"/>
 <path d="m246.77 596.59c-4.2454 4.0894-9.2886 6.695-14.688 9.7851l-6.3675 1.1355 17.351-10.638 3.7049-0.28247z" fill="#c89a19" fill-opacity=".36965" fill-rule="evenodd"/>
 <path d="m211.59 567.35c-6.3415-0.4993-11.997 5.561-12.625 13.527s4.0106 14.837 10.352 15.336c0.43784 0.03447 0.87032 0.03511 1.2998 0.00766-1.133-0.3758-2.1868-0.964-3.1362-1.7281l-0.02787-0.02446c-3.5239-2.6842-7.3397-7.4091-6.664-12.984 1.3245-10.928 6.7593-13.311 12.411-13.864-0.52262-0.13599-1.0596-0.22814-1.6105-0.2715zm1.6105 0.2715c0.19597 0.05103 0.38976 0.11048 0.58125 0.17388 0.43224-0.02705 0.8682-0.02628 1.3084 0.00836 1.8309 0.14418 3.5189 0.81876 4.9801 1.8982-1.5189-1.1936-3.2971-1.9438-5.2366-2.0966-0.55061-0.04337-1.0954-0.03636-1.6331 0.01614z" fill="url(#y)" fill-rule="evenodd" filter="url(#bc)"/>
 <path d="m222.39 582.38c0 5.5205-3.9258 9.9958-8.7685 9.9958s-8.7685-4.4753-8.7685-9.9958 3.9258-9.9958 8.7685-9.9958 8.7685 4.4753 8.7685 9.9958z" fill="url(#z)" fill-rule="evenodd"/>
 <path d="m218.26 581.31c0 3.6136-2.49 6.543-5.5615 6.543s-5.5615-2.9294-5.5615-6.543 2.49-6.5429 5.5615-6.5429 5.5615 2.9294 5.5615 6.5429z" fill="#bbbc34" fill-rule="evenodd"/>
 <path transform="matrix(.58921 0 0 .58921 2731.3 5468.4)" d="m-4282.4-8856.5 29.115 361.51" fill="none" filter="url(#ao)" stroke="#b9e6ff" stroke-linecap="round" stroke-linejoin="round" stroke-width="4.7"/>
 <path transform="matrix(.3736 -.14287 0 .44364 1990.4 3658.5)" d="m-4436.6-8446.7c33.636 22.394 228.73 37.305 315.82 39.311 30.342 0.6989 3.7475 46.454 24.217 44.469 15.107-1.4656-61.615 8.1589-49.9 4.7662-48.483 13.105-94.833 15.069-82.211 21.361l-207.92-109.91z" fill-opacity=".19066" fill-rule="evenodd" filter="url(#d)"/>
 <path d="m408.29 571.82 14.32 213.78" fill="none" stroke="#7f7f7f" stroke-width="3.334"/>
 <path d="m153.12 232.56-78.114 36.014-33.038-18.158s9.6843-8.3677 20.943-14.984c14.48-8.5087 90.209-2.8724 90.209-2.8724z" fill="#bcbcbc" fill-rule="evenodd"/>
 <path d="m167.71 446.42c54.081 31.04 96.619 32.887 143.37 32.963 49.332 0.07983 99.972-3.2623 149.76-26.297l-2.4998 49.681c-35.274 27.465-100.08 37.429-149.63 37.784-48.212 0.34527-121.66-11.132-141-44.45v-49.681z" fill="url(#aa)" fill-rule="evenodd" opacity=".90698"/>
 <path d="m145.63 385.73s6.9639 30.638 13.703 46.936c5.3178 12.862 10.901 15.344 10.901 15.344l54.03 15.665-14.403-214.85-58.546-15.813-5.6845 152.71z" fill="url(#ab)" fill-rule="evenodd"/>
 <path d="m145.63 385.73s6.9639 30.638 13.703 46.936c5.3178 12.862 10.901 15.344 10.901 15.344l54.03 15.665-14.403-214.85-58.546-15.813-5.6845 152.71z" fill="url(#ac)" fill-rule="evenodd"/>
 <path d="m176.02 508.87c73.998 46.511 207.53 41.432 279.47-3.088" fill="none" filter="url(#bd)" stroke="#000" stroke-width="2"/>
</svg>
